<svg width="300" height="350" viewBox="0 0 300 350" xmlns="http://www.w3.org/2000/svg">
  <defs>
    <filter id="shadow" x="-50%" y="-50%" width="200%" height="200%">
      <feDropShadow dx="2" dy="2" stdDeviation="2" flood-color="rgba(0,0,0,0.2)"/>
    </filter>
  </defs>
  
  <!-- Head (Box Shape) -->
  <rect x="90" y="40" width="120" height="90" rx="8" ry="8" 
        fill="#f9f9f0" 
        stroke="#146a2c" 
        stroke-width="6" 
        filter="url(#shadow)"/>
  
  <!-- Body (Rounded Rectangle) -->
  <rect x="100" y="130" width="100" height="120" rx="15" ry="15" 
        fill="#f9f9f0" 
        stroke="#146a2c" 
        stroke-width="6" 
        filter="url(#shadow)"/>
  
  <!-- Left Arm holding Burger -->
  <rect x="45" y="160" width="60" height="15" rx="7" ry="7" 
        fill="#f9f9f0" 
        stroke="#146a2c" 
        stroke-width="4"
        transform="rotate(-10 75 167)"/>
  
  <!-- Burger in Left Hand -->
  <g transform="translate(15, 140) rotate(-10)">
    <!-- Top Bun -->
    <ellipse cx="25" cy="20" rx="18" ry="8" fill="#D2B48C" stroke="#146a2c" stroke-width="2"/>
    <!-- Lettuce -->
    <ellipse cx="25" cy="25" rx="17" ry="3" fill="#228B22"/>
    <!-- Meat -->
    <ellipse cx="25" cy="28" rx="16" ry="4" fill="#8B4513"/>
    <!-- Bottom Bun -->
    <ellipse cx="25" cy="33" rx="18" ry="7" fill="#D2B48C" stroke="#146a2c" stroke-width="2"/>
  </g>
  
  <!-- Right Arm holding Coffee -->  
  <rect x="195" y="160" width="60" height="15" rx="7" ry="7" 
        fill="#f9f9f0" 
        stroke="#146a2c" 
        stroke-width="4"
        transform="rotate(10 225 167)"/>
  
  <!-- Coffee Cup in Right Hand -->
  <g transform="translate(240, 140) rotate(10)">
    <!-- Cup -->
    <rect x="15" y="20" width="20" height="25" rx="2" ry="2" 
          fill="#f9f9f0" stroke="#146a2c" stroke-width="3"/>
    <!-- Coffee -->
    <rect x="17" y="22" width="16" height="18" rx="1" ry="1" fill="#2F1B14"/>
    <!-- Handle -->
    <path d="M 35 28 Q 42 28 42 35 Q 42 42 35 42" stroke="#146a2c" 
          stroke-width="3" fill="none"/>
    <!-- Steam -->
    <path d="M 22 18 Q 23 12 21 8" stroke="#146a2c" stroke-width="2" 
          fill="none" opacity="0.6" stroke-linecap="round"/>
    <path d="M 25 18 Q 26 10 24 6" stroke="#146a2c" stroke-width="2" 
          fill="none" opacity="0.6" stroke-linecap="round"/>
    <path d="M 28 18 Q 29 12 27 8" stroke="#146a2c" stroke-width="2" 
          fill="none" opacity="0.6" stroke-linecap="round"/>
  </g>
  
  <!-- Legs -->
  <rect x="120" y="250" width="20" height="50" rx="10" ry="10" 
        fill="#f9f9f0" 
        stroke="#146a2c" 
        stroke-width="4"/>
  <rect x="160" y="250" width="20" height="50" rx="10" ry="10" 
        fill="#f9f9f0" 
        stroke="#146a2c" 
        stroke-width="4"/>
  
  <!-- Shoes -->
  <ellipse cx="130" cy="310" rx="18" ry="10" fill="#146a2c" filter="url(#shadow)"/>
  <ellipse cx="170" cy="310" rx="18" ry="10" fill="#146a2c" filter="url(#shadow)"/>
  
  <!-- Shoe Details -->
  <ellipse cx="130" cy="308" rx="14" ry="6" fill="#f9f9f0"/>
  <ellipse cx="170" cy="308" rx="14" ry="6" fill="#f9f9f0"/>
  <circle cx="125" cy="308" r="3" fill="#146a2c"/>
  <circle cx="135" cy="308" r="3" fill="#146a2c"/>
  <circle cx="165" cy="308" r="3" fill="#146a2c"/>
  <circle cx="175" cy="308" r="3" fill="#146a2c"/>
  
  <!-- Shoe Laces -->
  <path d="M 125 305 L 135 305" stroke="#146a2c" stroke-width="2"/>
  <path d="M 165 305 L 175 305" stroke="#146a2c" stroke-width="2"/>
</svg>
